<?xml version="1.0" encoding="UTF-8" standalone="no"?>
<!DOCTYPE svg PUBLIC "-//W3C//DTD SVG 1.1//EN" "http://www.w3.org/Graphics/SVG/1.1/DTD/svg11.dtd">
<svg xmlns="http://www.w3.org/2000/svg" version="1.1" viewBox="0.00 0.00 1920.00 1080.00">
    <g stroke-width="2.00" fill="none" stroke-linecap="butt">
        <path stroke="#e3dde8" vector-effect="non-scaling-stroke" d="
  M 1177.87 545.97
  L 1177.84 605.23
  Q 1177.84 606.19 1178.81 606.19
  L 1328.62 606.27
  Q 1329.21 606.27 1329.31 605.69
  Q 1329.52 604.45 1329.51 602.75
  Q 1329.39 590.84 1329.47 576.89
  A 0.91 0.91 0.0 0 0 1328.56 575.98
  Q 1276.56 576.13 1227.77 576.01
  Q 1226.95 576.01 1222.44 575.84
  A 0.68 0.68 0.0 0 1 1221.78 575.16
  L 1221.72 555.82"
        />
        <path stroke="#f4d9e8" vector-effect="non-scaling-stroke" d="
  M 1221.72 555.82
  Q 1221.70 555.42 1221.80 555.14
  Q 1221.98 554.64 1222.51 554.64
  L 1233.69 554.64"
        />
        <path stroke="#e8e6eb" vector-effect="non-scaling-stroke" d="
  M 1233.69 554.64
  L 1323.95 554.60
  A 1.18 1.18 0.0 0 0 1325.13 553.42
  L 1324.97 525.94
  A 1.07 1.06 89.7 0 0 1323.91 524.88
  L 1253.31 524.82"
        />
        <path stroke="#f4d9e8" vector-effect="non-scaling-stroke" d="
  M 1253.31 524.82
  L 1222.75 524.71
  A 1.03 1.03 0.0 0 1 1221.73 523.68
  L 1221.75 506.30
  A 0.71 0.71 0.0 0 1 1222.45 505.59
  L 1266.03 505.37"
        />
        <path stroke="#e8e6eb" vector-effect="non-scaling-stroke" d="
  M 1266.03 505.37
  L 1326.68 505.33
  A 0.99 0.97 90.0 0 0 1327.65 504.34
  L 1327.59 477.25
  A 1.37 1.36 -90.0 0 0 1326.23 475.88
  L 1252.98 476.05"
        />
        <path stroke="#f4d9e8" vector-effect="non-scaling-stroke" d="
  M 1252.98 476.05
  L 1178.68 475.87
  A 1.14 1.13 90.0 0 0 1177.54 477.02
  L 1177.87 545.97"
        />
        <path stroke="#ddc0d4" vector-effect="non-scaling-stroke" d="
  M 1252.98 476.05
  L 1266.03 505.37"
        />
        <path stroke="#ddc0d4" vector-effect="non-scaling-stroke" d="
  M 1253.31 524.82
  C 1244.57 533.79 1237.89 542.90 1233.69 554.64"
        />
        <path stroke="#d8b7d1" vector-effect="non-scaling-stroke" d="
  M 1221.72 555.82
  L 1177.87 545.97"
        />
        <path stroke="#dbeff5" vector-effect="non-scaling-stroke" d="
  M 1361.50 476.21
  L 1353.74 476.33
  A 0.94 0.94 0.0 0 0 1352.81 477.26
  Q 1352.73 494.91 1352.86 514.27
  Q 1352.95 527.56 1352.87 534.26
  Q 1352.43 571.33 1352.96 605.36
  A 1.11 1.10 -0.5 0 0 1354.07 606.44
  L 1395.59 606.38
  A 1.18 1.18 0.0 0 0 1396.76 605.20
  L 1396.66 524.54"
        />
        <path stroke="#d3f8ff" vector-effect="non-scaling-stroke" d="
  M 1396.66 524.54
  Q 1396.38 522.66 1396.61 521.62
  A 1.26 0.73 34.2 0 1 1398.35 521.74
  Q 1412.16 534.07 1426.16 546.59
  Q 1482.41 596.89 1489.73 603.81
  Q 1492.47 606.40 1496.53 606.40
  Q 1520.24 606.43 1536.23 606.30
  A 0.50 0.50 0.0 0 0 1536.73 605.80
  L 1536.87 487.95"
        />
        <path stroke="#cfe6f0" vector-effect="non-scaling-stroke" d="
  M 1536.87 487.95
  L 1536.88 476.88
  A 0.41 0.41 0.0 0 0 1536.47 476.46
  L 1518.45 476.26"
        />
        <path stroke="#d3f8ff" vector-effect="non-scaling-stroke" d="
  M 1518.45 476.26
  L 1493.18 476.50
  A 0.23 0.23 0.0 0 0 1492.95 476.73
  L 1493.04 556.73
  A 0.64 0.63 20.9 0 1 1491.98 557.20
  Q 1475.59 542.30 1436.13 506.80
  Q 1428.62 500.05 1421.39 493.34
  Q 1413.25 485.81 1405.30 478.88
  Q 1403.70 477.48 1402.54 476.97
  Q 1400.87 476.23 1399.25 476.25
  Q 1380.42 476.43 1361.50 476.21"
        />
        <path stroke="#a2dff0" vector-effect="non-scaling-stroke" d="
  M 1518.45 476.26
  Q 1524.91 484.16 1533.00 487.78
  Q 1534.57 488.49 1536.87 487.95"
        />
        <path stroke="#aee8f5" vector-effect="non-scaling-stroke" d="
  M 1396.66 524.54
  C 1383.72 505.76 1373.76 491.32 1361.50 476.21"
        />
        <path stroke="#999eff" vector-effect="non-scaling-stroke" d="
  M 493.41 523.74
  L 415.90 523.79
  A 0.87 0.86 90.0 0 1 415.04 522.92
  L 414.96 476.74
  A 0.25 0.24 90.0 0 0 414.72 476.49
  L 371.30 476.44
  Q 370.78 476.44 370.78 476.96
  L 370.85 605.90
  A 0.33 0.33 0.0 0 0 371.18 606.23
  L 414.01 606.28
  Q 415.07 606.28 415.07 605.23
  L 415.03 555.53
  A 0.41 0.41 0.0 0 1 415.44 555.12
  L 502.44 555.10"
        />
        <path stroke="#cc90ff" vector-effect="non-scaling-stroke" d="
  M 502.44 555.10
  L 509.35 555.08
  A 0.69 0.69 0.0 0 1 510.04 555.77
  L 510.09 605.87
  A 0.41 0.41 0.0 0 0 510.50 606.27
  L 553.49 606.23
  A 0.90 0.90 0.0 0 0 554.39 605.33
  L 554.38 477.04
  A 0.59 0.58 -90.0 0 0 553.80 476.45
  L 510.61 476.46
  A 0.56 0.55 90.0 0 0 510.06 477.02
  L 510.07 523.00
  A 0.79 0.79 0.0 0 1 509.28 523.79
  L 493.41 523.74"
        />
        <path stroke="#652fff" vector-effect="non-scaling-stroke" d="
  M 502.44 555.10
  Q 499.17 539.11 493.41 523.74"
        />
        <path stroke="#ff9ec8" vector-effect="non-scaling-stroke" d="
  M 636.49 548.10
  Q 639.05 550.85 641.75 553.49
  Q 643.18 554.90 643.18 556.50
  Q 643.15 571.69 643.11 604.19
  A 0.64 0.63 -0.0 0 0 643.75 604.82
  L 686.21 604.78
  A 0.90 0.90 0.0 0 0 687.11 603.87
  Q 686.95 583.54 687.05 556.50
  Q 687.06 554.87 688.44 553.44
  Q 693.87 547.87 698.77 542.35"
        />
        <path stroke="#ffa6ba" vector-effect="non-scaling-stroke" d="
  M 698.77 542.35
  L 758.91 477.41
  A 0.60 0.60 0.0 0 0 758.47 476.40
  L 711.61 476.33
  A 3.04 3.02 -68.3 0 0 709.40 477.29
  L 683.66 504.91"
        />
        <path stroke="#ff9ec8" vector-effect="non-scaling-stroke" d="
  M 683.66 504.91
  L 666.77 522.96
  A 0.87 0.87 0.0 0 1 665.50 522.95
  L 635.19 489.90"
        />
        <path stroke="#ff89ea" vector-effect="non-scaling-stroke" d="
  M 635.19 489.90
  L 623.62 477.34
  A 3.17 3.12 -21.1 0 0 621.27 476.32
  L 569.24 476.36
  A 0.44 0.44 0.0 0 0 568.92 477.11
  L 636.49 548.10"
        />
        <path stroke="#ff28b2" vector-effect="non-scaling-stroke" d="
  M 635.19 489.90
  Q 639.83 514.76 637.37 539.60
  Q 636.95 543.80 636.49 548.10"
        />
        <path stroke="#ff4582" vector-effect="non-scaling-stroke" d="
  M 698.77 542.35
  Q 695.38 521.71 683.66 504.91"
        />
        <path stroke="#ffbaba" vector-effect="non-scaling-stroke" d="
  M 774.85 532.28
  L 774.87 605.53
  A 0.90 0.89 89.7 0 0 775.77 606.43
  L 818.45 606.32
  A 0.79 0.79 0.0 0 0 819.23 605.54
  L 819.32 564.14
  A 1.10 1.09 -0.0 0 1 820.42 563.05
  L 870.14 562.94"
        />
        <path stroke="#ffcbbb" vector-effect="non-scaling-stroke" d="
  M 870.14 562.94
  Q 888.86 563.81 907.46 560.90
  C 927.26 557.80 945.13 547.10 947.11 525.31
  C 948.15 513.90 946.49 501.62 938.17 492.94
  Q 932.25 486.76 923.47 483.08
  Q 912.69 478.56 898.74 477.23
  Q 883.03 475.73 858.94 476.44"
        />
        <path stroke="#ffc2ab" vector-effect="non-scaling-stroke" d="
  M 858.94 476.44
  L 775.42 476.37
  A 0.58 0.58 0.0 0 0 774.84 476.95
  L 774.85 532.28"
        />
        <path stroke="#ff8e67" vector-effect="non-scaling-stroke" d="
  M 858.94 476.44
  L 858.25 505.97"
        />
        <path stroke="#ffc2ab" vector-effect="non-scaling-stroke" d="
  M 858.25 505.97
  L 820.26 505.99
  A 0.99 0.99 0.0 0 0 819.27 506.98
  L 819.20 522.87"
        />
        <path stroke="#ff7d66" vector-effect="non-scaling-stroke" d="
  M 819.20 522.87
  Q 810.70 531.05 802.56 534.85
  C 793.47 539.10 784.84 538.37 775.62 534.89
  Q 775.15 534.71 775.09 534.22
  L 774.85 532.28"
        />
        <path stroke="#ff8676" vector-effect="non-scaling-stroke" d="
  M 870.14 562.94
  Q 872.78 548.11 877.95 533.89"
        />
        <path stroke="#ffcbbb" vector-effect="non-scaling-stroke" d="
  M 877.95 533.89
  C 886.49 533.92 899.56 533.29 900.86 522.03
  Q 901.64 515.25 897.78 511.07
  C 894.30 507.31 887.36 505.99 882.25 505.96
  Q 870.30 505.90 858.25 505.97"
        />
        <path stroke="#ffbaba" vector-effect="non-scaling-stroke" d="
  M 877.95 533.89
  L 820.41 533.94
  A 1.15 1.15 0.0 0 1 819.26 532.79
  L 819.20 522.87"
        />
        <path stroke="#fec8c9" vector-effect="non-scaling-stroke" d="
  M 1061.71 523.80
  L 1011.93 523.79
  A 1.04 1.04 0.0 0 1 1010.89 522.75
  L 1010.87 477.23
  A 0.79 0.78 -0.0 0 0 1010.08 476.45
  Q 991.70 476.57 969.77 476.43
  Q 968.12 476.42 967.06 476.70
  Q 966.58 476.82 966.58 477.31
  L 966.58 605.03
  A 1.20 1.19 90.0 0 0 967.77 606.23
  L 1009.85 606.24
  A 1.08 1.04 -90.0 0 0 1010.89 605.16
  L 1010.91 555.74
  A 0.73 0.71 0.0 0 1 1011.64 555.03
  L 1068.52 555.07"
        />
        <path stroke="#f4d9e8" vector-effect="non-scaling-stroke" d="
  M 1068.52 555.07
  L 1104.84 555.23
  Q 1105.62 555.23 1105.68 556.00
  Q 1105.87 558.29 1105.90 560.52
  Q 1106.13 578.57 1105.91 599.29
  Q 1105.87 602.79 1106.27 605.68
  Q 1106.34 606.17 1106.82 606.17
  Q 1123.62 606.14 1143.28 606.31
  Q 1146.22 606.34 1149.67 606.09
  A 0.58 0.58 0.0 0 0 1150.21 605.51
  L 1150.25 476.99
  A 0.50 0.50 0.0 0 0 1149.75 476.49
  L 1107.00 476.38
  A 1.12 1.10 -89.7 0 0 1105.89 477.50
  L 1105.99 522.66
  Q 1105.99 523.75 1104.90 523.75
  L 1061.71 523.80"
        />
        <path stroke="#f3a2b2" vector-effect="non-scaling-stroke" d="
  M 1068.52 555.07
  Q 1065.90 539.15 1061.71 523.80"
        />
        <path stroke="#fec8c9" vector-effect="non-scaling-stroke" d="
  M 985.9567 649.4630
  A 0.55 0.55 0.0 0 0 985.4057 648.9140
  L 978.5057 648.9261
  A 0.55 0.55 0.0 0 0 977.9567 649.4770
  L 978.0233 687.6570
  A 0.55 0.55 0.0 0 0 978.5743 688.2060
  L 985.4743 688.1939
  A 0.55 0.55 0.0 0 0 986.0233 687.6430
  L 985.9567 649.4630"
        />
        <path stroke="#d3f8ff" vector-effect="non-scaling-stroke" d="
  M 1440.26 673.58
  A 1.15 1.14 88.5 0 1 1441.38 672.39
  Q 1444.20 672.36 1447.34 672.48
  C 1456.36 672.82 1462.18 667.29 1460.65 657.93
  Q 1460.15 654.88 1456.88 651.68
  C 1454.51 649.36 1449.37 648.81 1446.24 648.89
  Q 1439.25 649.07 1432.86 648.84
  A 0.54 0.54 0.0 0 0 1432.30 649.39
  Q 1432.88 668.38 1432.24 686.75
  Q 1432.18 688.32 1433.75 688.28
  L 1439.22 688.15
  Q 1440.79 688.11 1440.74 686.56
  L 1440.26 673.58"
        />
        <path stroke="#d3f8ff" vector-effect="non-scaling-stroke" d="
  M 1492.9350 650.0053
  A 1.10 1.10 0.0 0 0 1491.8369 648.9034
  L 1464.9969 648.8566
  A 1.10 1.10 0.0 0 0 1463.8950 649.9547
  L 1463.8850 655.6947
  A 1.10 1.10 0.0 0 0 1464.9831 656.7966
  L 1491.8231 656.8434
  A 1.10 1.10 0.0 0 0 1492.9250 655.7453
  L 1492.9350 650.0053"
        />
        <path stroke="#d3f8ff" vector-effect="non-scaling-stroke" d="
  M 1517.78 676.09
  Q 1517.79 677.07 1517.78 677.16
  Q 1517.56 680.32 1514.48 680.33
  L 1497.43 680.39
  Q 1496.24 680.40 1496.22 681.55
  L 1496.09 686.94
  Q 1496.07 688.20 1497.30 688.22
  Q 1509.39 688.33 1513.51 688.24
  Q 1519.72 688.11 1522.91 684.04
  C 1527.26 678.51 1526.22 670.58 1520.43 666.38
  Q 1518.00 664.62 1507.47 664.51
  Q 1503.78 664.48 1503.92 660.73
  Q 1503.93 660.69 1503.93 660.58
  Q 1503.97 656.97 1507.99 656.94
  L 1522.86 656.80
  Q 1524.56 656.79 1524.54 655.12
  L 1524.50 650.72
  Q 1524.48 649.08 1522.85 649.02
  Q 1516.77 648.80 1508.40 648.90
  Q 1504.49 648.94 1502.23 650.33
  Q 1498.82 652.43 1497.50 655.00
  C 1493.39 663.01 1497.95 672.13 1507.29 672.33
  Q 1513.06 672.46 1514.64 672.63
  Q 1517.74 672.97 1517.78 676.09"
        />
        <path stroke="#fec8c9" vector-effect="non-scaling-stroke" d="
  M 909.48 688.23
  C 918.99 688.22 925.70 680.70 925.78 671.25
  Q 925.91 656.81 925.92 650.02
  Q 925.92 648.86 924.78 648.88
  L 918.81 648.97
  Q 917.68 648.99 917.70 650.09
  Q 917.89 658.42 917.74 668.06
  C 917.67 672.54 918.06 675.94 914.23 678.96
  Q 912.34 680.45 909.47 680.45
  Q 906.61 680.45 904.72 678.96
  C 900.88 675.95 901.27 672.55 901.20 668.07
  Q 901.04 658.43 901.22 650.10
  Q 901.24 649.00 900.11 648.98
  L 894.14 648.89
  Q 893.00 648.87 893.00 650.03
  Q 893.02 656.82 893.16 671.26
  C 893.25 680.71 899.96 688.23 909.48 688.23"
        />
        <path stroke="#fec8c9" vector-effect="non-scaling-stroke" d="
  M 1013.79 676.06
  Q 1013.83 677.23 1013.83 677.26
  Q 1013.28 680.45 1010.22 680.44
  L 993.14 680.37
  A 0.74 0.74 0.0 0 0 992.39 681.10
  L 992.35 687.48
  A 0.77 0.76 0.4 0 0 993.11 688.24
  Q 1000.78 688.29 1007.74 688.19
  Q 1012.64 688.12 1014.74 687.28
  C 1020.78 684.86 1023.39 677.18 1020.72 671.54
  Q 1017.80 665.37 1010.74 664.80
  Q 1009.64 664.71 1004.00 664.67
  Q 1000.30 664.64 1000.16 660.95
  Q 1000.15 660.69 1000.15 660.66
  Q 1000.10 656.94 1003.77 656.91
  L 1019.51 656.81
  Q 1020.55 656.81 1020.56 655.76
  L 1020.65 649.91
  Q 1020.66 649.02 1019.71 649.01
  Q 1006.05 648.87 1003.50 648.99
  C 995.11 649.39 990.09 656.98 992.87 665.04
  Q 994.59 670.04 1000.57 672.12
  C 1003.10 673.00 1007.60 672.42 1010.43 672.60
  Q 1013.68 672.80 1013.79 676.06"
        />
        <path stroke="#f4d9e8" vector-effect="non-scaling-stroke" d="
  M 1047.68 676.58
  Q 1047.72 676.87 1047.35 677.88
  Q 1046.41 680.44 1043.71 680.43
  L 1027.03 680.39
  Q 1026.14 680.39 1026.13 681.23
  L 1026.07 687.31
  A 0.92 0.87 0.6 0 0 1026.98 688.19
  Q 1035.66 688.24 1041.41 688.23
  Q 1046.42 688.23 1048.71 687.23
  C 1054.80 684.55 1057.22 676.57 1054.10 670.87
  C 1050.46 664.21 1045.04 664.83 1037.66 664.66
  Q 1034.02 664.57 1033.80 660.85
  Q 1033.79 660.74 1033.79 660.70
  Q 1033.71 656.97 1037.30 656.93
  L 1053.79 656.76
  Q 1054.29 656.75 1054.30 656.25
  L 1054.43 649.73
  Q 1054.44 649.16 1053.85 649.14
  Q 1043.98 648.79 1037.77 648.96
  Q 1030.96 649.13 1027.65 654.43
  C 1023.49 661.08 1026.48 669.48 1033.83 672.02
  C 1036.44 672.92 1040.95 672.60 1043.76 672.58
  Q 1047.07 672.56 1047.68 676.58"
        />
        <path stroke="#e3dde8" vector-effect="non-scaling-stroke" d="
  M 1078.5311 688.2493
  A 19.61 19.38 89.5 0 0 1097.7393 668.4709
  A 19.61 19.38 89.5 0 0 1078.1889 649.0307
  A 19.61 19.38 89.5 0 0 1058.9807 668.8091
  A 19.61 19.38 89.5 0 0 1078.5311 688.2493"
        />
        <path stroke="#cfe6f0" vector-effect="non-scaling-stroke" d="
  M 1166.50 676.73
  Q 1166.39 680.39 1162.67 680.38
  L 1145.99 680.37
  Q 1145.03 680.37 1145.04 681.31
  L 1145.09 687.30
  Q 1145.10 688.20 1146.04 688.22
  Q 1148.86 688.30 1160.61 688.25
  Q 1165.64 688.24 1167.96 687.12
  Q 1171.54 685.38 1173.40 681.41
  C 1176.76 674.21 1172.13 665.85 1164.18 664.87
  Q 1162.79 664.70 1156.46 664.64
  Q 1152.73 664.61 1152.71 660.83
  Q 1152.71 660.72 1152.71 660.68
  Q 1152.77 656.92 1156.45 656.90
  L 1172.75 656.82
  Q 1173.30 656.82 1173.30 656.25
  L 1173.29 649.70
  A 0.65 0.62 0.5 0 0 1172.65 649.08
  Q 1169.24 649.04 1159.26 648.98
  Q 1153.86 648.96 1151.91 649.88
  C 1141.56 654.81 1142.65 669.10 1153.54 672.22
  C 1155.95 672.91 1159.67 672.45 1162.66 672.55
  Q 1166.37 672.67 1166.50 676.45
  Q 1166.51 676.49 1166.50 676.73"
        />
        <path stroke="#cfe6f0" vector-effect="non-scaling-stroke" d="
  M 1251.6154 688.2749
  A 19.63 19.33 88.7 0 0 1270.4950 668.2115
  A 19.63 19.33 88.7 0 0 1250.7246 649.0251
  A 19.63 19.33 88.7 0 0 1231.8450 669.0885
  A 19.63 19.33 88.7 0 0 1251.6154 688.2749"
        />
        <path stroke="#cfe6f0" vector-effect="non-scaling-stroke" d="
  M 1282.85 660.49
  Q 1283.14 656.89 1286.67 656.86
  L 1302.83 656.74
  Q 1303.39 656.74 1303.40 656.19
  L 1303.47 649.78
  A 0.68 0.66 -90.0 0 0 1302.81 649.10
  Q 1291.27 649.14 1287.54 649.01
  C 1278.02 648.68 1271.55 658.27 1276.52 666.83
  C 1280.22 673.23 1286.73 672.58 1293.37 672.68
  Q 1296.29 672.72 1296.76 676.51
  Q 1296.80 676.83 1296.75 677.09
  Q 1296.11 680.38 1293.07 680.38
  L 1276.43 680.39
  Q 1275.31 680.39 1275.27 681.52
  L 1275.09 687.01
  Q 1275.05 688.21 1276.27 688.23
  Q 1284.42 688.43 1292.75 688.25
  C 1301.17 688.07 1306.83 680.27 1303.88 672.33
  C 1301.82 666.79 1297.08 664.71 1291.41 664.79
  Q 1288.58 664.83 1286.13 664.51
  Q 1282.64 664.07 1282.84 660.64
  Q 1282.84 660.52 1282.85 660.49"
        />
        <path stroke="#dbeff5" vector-effect="non-scaling-stroke" d="
  M 1332.63 656.78
  L 1348.51 656.84
  Q 1349.31 656.84 1349.33 656.02
  L 1349.48 649.99
  Q 1349.50 649.13 1348.63 649.11
  Q 1343.28 649.03 1337.54 649.04
  Q 1331.52 649.05 1330.03 649.34
  Q 1325.92 650.13 1323.31 653.62
  C 1318.14 660.54 1321.47 670.06 1329.80 672.30
  C 1332.14 672.93 1336.01 672.45 1338.96 672.57
  Q 1342.63 672.72 1342.64 676.40
  Q 1342.65 676.56 1342.65 676.70
  Q 1342.68 680.41 1338.94 680.37
  L 1322.45 680.19
  Q 1321.05 680.17 1321.05 681.57
  L 1321.03 686.82
  Q 1321.03 688.34 1322.58 688.33
  Q 1336.60 688.31 1337.02 688.32
  C 1342.04 688.42 1345.86 687.22 1348.51 683.26
  Q 1351.74 678.43 1349.92 672.60
  Q 1347.90 666.13 1340.33 664.93
  Q 1339.27 664.76 1332.60 664.55
  Q 1329.00 664.44 1328.88 660.76
  Q 1328.87 660.67 1328.87 660.61
  Q 1328.97 656.77 1332.63 656.78"
        />
        <path stroke="#dbeff5" vector-effect="non-scaling-stroke" d="
  M 1364.0971 649.7731
  A 0.73 0.73 0.0 0 0 1363.3658 649.0444
  L 1356.9058 649.0557
  A 0.73 0.73 0.0 0 0 1356.1771 649.7869
  L 1356.2429 687.5269
  A 0.73 0.73 0.0 0 0 1356.9742 688.2556
  L 1363.4342 688.2443
  A 0.73 0.73 0.0 0 0 1364.1629 687.5131
  L 1364.0971 649.7731"
        />
        <path stroke="#dbeff5" vector-effect="non-scaling-stroke" d="
  M 1376.65 660.81
  Q 1376.64 663.06 1375.26 663.96
  C 1373.41 665.17 1370.04 664.74 1366.57 664.69
  A 1.14 1.06 -89.2 0 0 1365.49 665.82
  L 1365.46 671.62
  Q 1365.46 672.40 1366.32 672.45
  Q 1373.29 672.92 1376.39 672.03
  C 1381.38 670.59 1384.58 666.17 1384.60 660.85
  C 1384.63 655.52 1381.47 651.07 1376.50 649.58
  Q 1373.41 648.66 1366.43 649.06
  Q 1365.57 649.11 1365.56 649.89
  L 1365.54 655.69
  A 1.14 1.06 89.8 0 0 1366.61 656.83
  C 1370.08 656.81 1373.45 656.41 1375.29 657.64
  Q 1376.66 658.55 1376.65 660.81"
        />
        <path stroke="#d3f8ff" vector-effect="non-scaling-stroke" d="
  M 1409.0232 688.2755
  A 19.62 19.38 87.8 0 0 1427.6357 667.9260
  A 19.62 19.38 87.8 0 0 1407.5168 649.0645
  A 19.62 19.38 87.8 0 0 1388.9043 669.4140
  A 19.62 19.38 87.8 0 0 1409.0232 688.2755"
        />
        <path stroke="#fec8c9" vector-effect="non-scaling-stroke" d="
  M 942.36 666.94
  A 0.57 0.44 25.4 0 1 943.27 666.74
  L 957.70 679.56
  Q 959.43 681.10 959.40 678.58
  L 959.33 673.91
  A 6.24 6.22 -69.6 0 0 957.25 669.35
  L 935.52 649.89
  A 0.67 0.67 0.0 0 0 934.57 649.94
  Q 934.13 650.43 934.14 651.26
  Q 934.46 667.93 934.35 687.36
  A 0.86 0.86 0.0 0 0 935.22 688.22
  L 941.34 688.17
  A 1.00 0.99 89.7 0 0 942.32 687.17
  L 942.36 666.94"
        />
        <path stroke="#e3dde8" vector-effect="non-scaling-stroke" d="
  M 1112.18 666.29
  L 1127.73 680.13
  A 0.68 0.67 21.0 0 0 1128.86 679.64
  L 1128.77 672.92
  A 3.86 3.77 20.9 0 0 1127.49 670.15
  L 1104.59 649.66
  A 0.32 0.32 0.0 0 0 1104.06 649.84
  Q 1103.70 651.72 1103.72 653.76
  Q 1103.88 667.80 1103.80 687.52
  Q 1103.80 688.30 1104.58 688.29
  L 1111.00 688.21
  Q 1111.83 688.20 1111.82 687.38
  L 1111.68 666.51
  A 0.30 0.30 0.0 0 1 1112.18 666.29"
        />
        <path stroke="#cfe6f0" vector-effect="non-scaling-stroke" d="
  M 1200.36 666.67
  A 0.37 0.36 21.8 0 1 1200.98 666.42
  L 1216.39 680.16
  Q 1217.37 681.03 1217.38 679.71
  L 1217.43 672.85
  A 3.66 3.64 21.1 0 0 1216.20 670.10
  L 1193.38 649.82
  A 0.44 0.43 -65.9 0 0 1192.66 650.10
  Q 1192.56 650.91 1192.51 652.25
  Q 1192.39 655.73 1192.45 687.50
  Q 1192.45 688.31 1193.27 688.30
  L 1199.61 688.17
  A 0.89 0.87 -1.0 0 0 1200.48 687.29
  L 1200.36 666.67"
        />
        <path stroke="#fec8c9" vector-effect="non-scaling-stroke" d="
  M 960.65 682.16
  A 0.34 0.34 0.0 0 0 960.76 682.41
  L 967.94 688.91
  A 0.34 0.34 0.0 0 0 968.51 688.66
  L 968.57 650.42
  A 0.34 0.34 0.0 0 0 968.23 650.08
  L 960.80 650.15
  A 0.34 0.34 0.0 0 0 960.46 650.49
  L 960.65 682.16"
        />
        <path stroke="#cfe6f0" vector-effect="non-scaling-stroke" d="
  M 1218.79 682.20
  A 0.53 0.53 0.0 0 0 1218.97 682.60
  L 1225.78 688.65
  A 0.53 0.53 0.0 0 0 1226.66 688.25
  L 1226.62 650.73
  A 0.53 0.53 0.0 0 0 1226.10 650.20
  L 1219.20 650.13
  A 0.53 0.53 0.0 0 0 1218.66 650.66
  L 1218.79 682.20"
        />
        <path stroke="#cfe6f0" vector-effect="non-scaling-stroke" d="
  M 1130.13 682.12
  A 0.54 0.54 0.0 0 0 1130.31 682.52
  L 1137.16 688.64
  A 0.54 0.54 0.0 0 0 1138.06 688.24
  L 1137.99 650.75
  A 0.54 0.54 0.0 0 0 1137.45 650.21
  L 1130.49 650.16
  A 0.54 0.54 0.0 0 0 1129.94 650.71
  L 1130.13 682.12"
        />
        <path stroke="#d3f8ff" vector-effect="non-scaling-stroke" d="
  M 1482.33 659.64
  A 1.10 1.10 0.0 0 0 1481.23 658.54
  L 1475.27 658.54
  A 1.10 1.10 0.0 0 0 1474.17 659.64
  L 1474.17 687.18
  A 1.10 1.10 0.0 0 0 1475.27 688.28
  L 1481.23 688.28
  A 1.10 1.10 0.0 0 0 1482.33 687.18
  L 1482.33 659.64"
        />
        <path stroke="#d3f8ff" vector-effect="non-scaling-stroke" d="
  M 1452.89 687.85
  A 0.68 0.68 0.0 0 0 1453.41 688.09
  L 1461.80 688.19
  A 0.68 0.68 0.0 0 0 1462.32 687.07
  L 1450.95 673.98
  A 0.68 0.68 0.0 0 0 1450.44 673.75
  L 1442.65 673.66
  A 0.68 0.68 0.0 0 0 1442.12 674.77
  L 1452.89 687.85"
        />
        <path stroke="#d3f8ff" vector-effect="non-scaling-stroke" d="
  M 1535.0730 681.7813
  A 1.46 1.46 0.0 0 0 1533.6206 680.3137
  L 1528.4007 680.2864
  A 1.46 1.46 0.0 0 0 1526.9331 681.7387
  L 1526.9070 686.7187
  A 1.46 1.46 0.0 0 0 1528.3594 688.1863
  L 1533.5793 688.2136
  A 1.46 1.46 0.0 0 0 1535.0469 686.7613
  L 1535.0730 681.7813"
        />
        <path stroke="#d3f8ff" vector-effect="non-scaling-stroke" d="
  M 1440.36 657.73
  L 1440.28 663.61
  A 1.05 1.05 0.0 0 0 1441.31 664.68
  L 1449.12 664.78
  A 3.86 3.73 0.8 0 0 1453.04 661.11
  L 1453.04 660.59
  A 3.86 3.73 0.8 0 0 1449.24 656.81
  L 1441.43 656.70
  A 1.05 1.05 0.0 0 0 1440.36 657.73"
        />
        <path stroke="#e3dde8" vector-effect="non-scaling-stroke" d="
  M 1078.3907 680.4800
  A 11.84 11.30 89.9 0 0 1089.6700 668.6203
  A 11.84 11.30 89.9 0 0 1078.3493 656.8000
  A 11.84 11.30 89.9 0 0 1067.0700 668.6597
  A 11.84 11.30 89.9 0 0 1078.3907 680.4800"
        />
        <path stroke="#cfe6f0" vector-effect="non-scaling-stroke" d="
  M 1251.2727 680.4597
  A 11.85 11.33 89.6 0 0 1262.5197 668.5309
  A 11.85 11.33 89.6 0 0 1251.1073 656.7603
  A 11.85 11.33 89.6 0 0 1239.8603 668.6891
  A 11.85 11.33 89.6 0 0 1251.2727 680.4597"
        />
        <path stroke="#d3f8ff" vector-effect="non-scaling-stroke" d="
  M 1408.6586 680.4160
  A 11.79 11.35 88.5 0 0 1419.6961 668.3329
  A 11.79 11.35 88.5 0 0 1408.0414 656.8440
  A 11.79 11.35 88.5 0 0 1397.0039 668.9271
  A 11.79 11.35 88.5 0 0 1408.6586 680.4160"
        />
    </g>
    <path fill="#ffffff" d="
  M 1920.00 0.00
  L 1920.00 1080.00
  L 0.00 1080.00
  L 0.00 0.00
  L 1920.00 0.00
  Z
  M 1177.87 545.97
  L 1177.84 605.23
  Q 1177.84 606.19 1178.81 606.19
  L 1328.62 606.27
  Q 1329.21 606.27 1329.31 605.69
  Q 1329.52 604.45 1329.51 602.75
  Q 1329.39 590.84 1329.47 576.89
  A 0.91 0.91 0.0 0 0 1328.56 575.98
  Q 1276.56 576.13 1227.77 576.01
  Q 1226.95 576.01 1222.44 575.84
  A 0.68 0.68 0.0 0 1 1221.78 575.16
  L 1221.72 555.82
  Q 1221.70 555.42 1221.80 555.14
  Q 1221.98 554.64 1222.51 554.64
  L 1233.69 554.64
  L 1323.95 554.60
  A 1.18 1.18 0.0 0 0 1325.13 553.42
  L 1324.97 525.94
  A 1.07 1.06 89.7 0 0 1323.91 524.88
  L 1253.31 524.82
  L 1222.75 524.71
  A 1.03 1.03 0.0 0 1 1221.73 523.68
  L 1221.75 506.30
  A 0.71 0.71 0.0 0 1 1222.45 505.59
  L 1266.03 505.37
  L 1326.68 505.33
  A 0.99 0.97 90.0 0 0 1327.65 504.34
  L 1327.59 477.25
  A 1.37 1.36 -90.0 0 0 1326.23 475.88
  L 1252.98 476.05
  L 1178.68 475.87
  A 1.14 1.13 90.0 0 0 1177.54 477.02
  L 1177.87 545.97
  Z
  M 1361.50 476.21
  L 1353.74 476.33
  A 0.94 0.94 0.0 0 0 1352.81 477.26
  Q 1352.73 494.91 1352.86 514.27
  Q 1352.95 527.56 1352.87 534.26
  Q 1352.43 571.33 1352.96 605.36
  A 1.11 1.10 -0.5 0 0 1354.07 606.44
  L 1395.59 606.38
  A 1.18 1.18 0.0 0 0 1396.76 605.20
  L 1396.66 524.54
  Q 1396.38 522.66 1396.61 521.62
  A 1.26 0.73 34.2 0 1 1398.35 521.74
  Q 1412.16 534.07 1426.16 546.59
  Q 1482.41 596.89 1489.73 603.81
  Q 1492.47 606.40 1496.53 606.40
  Q 1520.24 606.43 1536.23 606.30
  A 0.50 0.50 0.0 0 0 1536.73 605.80
  L 1536.87 487.95
  L 1536.88 476.88
  A 0.41 0.41 0.0 0 0 1536.47 476.46
  L 1518.45 476.26
  L 1493.18 476.50
  A 0.23 0.23 0.0 0 0 1492.95 476.73
  L 1493.04 556.73
  A 0.64 0.63 20.9 0 1 1491.98 557.20
  Q 1475.59 542.30 1436.13 506.80
  Q 1428.62 500.05 1421.39 493.34
  Q 1413.25 485.81 1405.30 478.88
  Q 1403.70 477.48 1402.54 476.97
  Q 1400.87 476.23 1399.25 476.25
  Q 1380.42 476.43 1361.50 476.21
  Z
  M 493.41 523.74
  L 415.90 523.79
  A 0.87 0.86 90.0 0 1 415.04 522.92
  L 414.96 476.74
  A 0.25 0.24 90.0 0 0 414.72 476.49
  L 371.30 476.44
  Q 370.78 476.44 370.78 476.96
  L 370.85 605.90
  A 0.33 0.33 0.0 0 0 371.18 606.23
  L 414.01 606.28
  Q 415.07 606.28 415.07 605.23
  L 415.03 555.53
  A 0.41 0.41 0.0 0 1 415.44 555.12
  L 502.44 555.10
  L 509.35 555.08
  A 0.69 0.69 0.0 0 1 510.04 555.77
  L 510.09 605.87
  A 0.41 0.41 0.0 0 0 510.50 606.27
  L 553.49 606.23
  A 0.90 0.90 0.0 0 0 554.39 605.33
  L 554.38 477.04
  A 0.59 0.58 -90.0 0 0 553.80 476.45
  L 510.61 476.46
  A 0.56 0.55 90.0 0 0 510.06 477.02
  L 510.07 523.00
  A 0.79 0.79 0.0 0 1 509.28 523.79
  L 493.41 523.74
  Z
  M 636.49 548.10
  Q 639.05 550.85 641.75 553.49
  Q 643.18 554.90 643.18 556.50
  Q 643.15 571.69 643.11 604.19
  A 0.64 0.63 -0.0 0 0 643.75 604.82
  L 686.21 604.78
  A 0.90 0.90 0.0 0 0 687.11 603.87
  Q 686.95 583.54 687.05 556.50
  Q 687.06 554.87 688.44 553.44
  Q 693.87 547.87 698.77 542.35
  L 758.91 477.41
  A 0.60 0.60 0.0 0 0 758.47 476.40
  L 711.61 476.33
  A 3.04 3.02 -68.3 0 0 709.40 477.29
  L 683.66 504.91
  L 666.77 522.96
  A 0.87 0.87 0.0 0 1 665.50 522.95
  L 635.19 489.90
  L 623.62 477.34
  A 3.17 3.12 -21.1 0 0 621.27 476.32
  L 569.24 476.36
  A 0.44 0.44 0.0 0 0 568.92 477.11
  L 636.49 548.10
  Z
  M 774.85 532.28
  L 774.87 605.53
  A 0.90 0.89 89.7 0 0 775.77 606.43
  L 818.45 606.32
  A 0.79 0.79 0.0 0 0 819.23 605.54
  L 819.32 564.14
  A 1.10 1.09 -0.0 0 1 820.42 563.05
  L 870.14 562.94
  Q 888.86 563.81 907.46 560.90
  C 927.26 557.80 945.13 547.10 947.11 525.31
  C 948.15 513.90 946.49 501.62 938.17 492.94
  Q 932.25 486.76 923.47 483.08
  Q 912.69 478.56 898.74 477.23
  Q 883.03 475.73 858.94 476.44
  L 775.42 476.37
  A 0.58 0.58 0.0 0 0 774.84 476.95
  L 774.85 532.28
  Z
  M 1061.71 523.80
  L 1011.93 523.79
  A 1.04 1.04 0.0 0 1 1010.89 522.75
  L 1010.87 477.23
  A 0.79 0.78 -0.0 0 0 1010.08 476.45
  Q 991.70 476.57 969.77 476.43
  Q 968.12 476.42 967.06 476.70
  Q 966.58 476.82 966.58 477.31
  L 966.58 605.03
  A 1.20 1.19 90.0 0 0 967.77 606.23
  L 1009.85 606.24
  A 1.08 1.04 -90.0 0 0 1010.89 605.16
  L 1010.91 555.74
  A 0.73 0.71 0.0 0 1 1011.64 555.03
  L 1068.52 555.07
  L 1104.84 555.23
  Q 1105.62 555.23 1105.68 556.00
  Q 1105.87 558.29 1105.90 560.52
  Q 1106.13 578.57 1105.91 599.29
  Q 1105.87 602.79 1106.27 605.68
  Q 1106.34 606.17 1106.82 606.17
  Q 1123.62 606.14 1143.28 606.31
  Q 1146.22 606.34 1149.67 606.09
  A 0.58 0.58 0.0 0 0 1150.21 605.51
  L 1150.25 476.99
  A 0.50 0.50 0.0 0 0 1149.75 476.49
  L 1107.00 476.38
  A 1.12 1.10 -89.7 0 0 1105.89 477.50
  L 1105.99 522.66
  Q 1105.99 523.75 1104.90 523.75
  L 1061.71 523.80
  Z
  M 985.9567 649.4630
  A 0.55 0.55 0.0 0 0 985.4057 648.9140
  L 978.5057 648.9261
  A 0.55 0.55 0.0 0 0 977.9567 649.4770
  L 978.0233 687.6570
  A 0.55 0.55 0.0 0 0 978.5743 688.2060
  L 985.4743 688.1939
  A 0.55 0.55 0.0 0 0 986.0233 687.6430
  L 985.9567 649.4630
  Z
  M 1440.26 673.58
  A 1.15 1.14 88.5 0 1 1441.38 672.39
  Q 1444.20 672.36 1447.34 672.48
  C 1456.36 672.82 1462.18 667.29 1460.65 657.93
  Q 1460.15 654.88 1456.88 651.68
  C 1454.51 649.36 1449.37 648.81 1446.24 648.89
  Q 1439.25 649.07 1432.86 648.84
  A 0.54 0.54 0.0 0 0 1432.30 649.39
  Q 1432.88 668.38 1432.24 686.75
  Q 1432.18 688.32 1433.75 688.28
  L 1439.22 688.15
  Q 1440.79 688.11 1440.74 686.56
  L 1440.26 673.58
  Z
  M 1492.9350 650.0053
  A 1.10 1.10 0.0 0 0 1491.8369 648.9034
  L 1464.9969 648.8566
  A 1.10 1.10 0.0 0 0 1463.8950 649.9547
  L 1463.8850 655.6947
  A 1.10 1.10 0.0 0 0 1464.9831 656.7966
  L 1491.8231 656.8434
  A 1.10 1.10 0.0 0 0 1492.9250 655.7453
  L 1492.9350 650.0053
  Z
  M 1517.78 676.09
  Q 1517.79 677.07 1517.78 677.16
  Q 1517.56 680.32 1514.48 680.33
  L 1497.43 680.39
  Q 1496.24 680.40 1496.22 681.55
  L 1496.09 686.94
  Q 1496.07 688.20 1497.30 688.22
  Q 1509.39 688.33 1513.51 688.24
  Q 1519.72 688.11 1522.91 684.04
  C 1527.26 678.51 1526.22 670.58 1520.43 666.38
  Q 1518.00 664.62 1507.47 664.51
  Q 1503.78 664.48 1503.92 660.73
  Q 1503.93 660.69 1503.93 660.58
  Q 1503.97 656.97 1507.99 656.94
  L 1522.86 656.80
  Q 1524.56 656.79 1524.54 655.12
  L 1524.50 650.72
  Q 1524.48 649.08 1522.85 649.02
  Q 1516.77 648.80 1508.40 648.90
  Q 1504.49 648.94 1502.23 650.33
  Q 1498.82 652.43 1497.50 655.00
  C 1493.39 663.01 1497.95 672.13 1507.29 672.33
  Q 1513.06 672.46 1514.64 672.63
  Q 1517.74 672.97 1517.78 676.09
  Z
  M 909.48 688.23
  C 918.99 688.22 925.70 680.70 925.78 671.25
  Q 925.91 656.81 925.92 650.02
  Q 925.92 648.86 924.78 648.88
  L 918.81 648.97
  Q 917.68 648.99 917.70 650.09
  Q 917.89 658.42 917.74 668.06
  C 917.67 672.54 918.06 675.94 914.23 678.96
  Q 912.34 680.45 909.47 680.45
  Q 906.61 680.45 904.72 678.96
  C 900.88 675.95 901.27 672.55 901.20 668.07
  Q 901.04 658.43 901.22 650.10
  Q 901.24 649.00 900.11 648.98
  L 894.14 648.89
  Q 893.00 648.87 893.00 650.03
  Q 893.02 656.82 893.16 671.26
  C 893.25 680.71 899.96 688.23 909.48 688.23
  Z
  M 1013.79 676.06
  Q 1013.83 677.23 1013.83 677.26
  Q 1013.28 680.45 1010.22 680.44
  L 993.14 680.37
  A 0.74 0.74 0.0 0 0 992.39 681.10
  L 992.35 687.48
  A 0.77 0.76 0.4 0 0 993.11 688.24
  Q 1000.78 688.29 1007.74 688.19
  Q 1012.64 688.12 1014.74 687.28
  C 1020.78 684.86 1023.39 677.18 1020.72 671.54
  Q 1017.80 665.37 1010.74 664.80
  Q 1009.64 664.71 1004.00 664.67
  Q 1000.30 664.64 1000.16 660.95
  Q 1000.15 660.69 1000.15 660.66
  Q 1000.10 656.94 1003.77 656.91
  L 1019.51 656.81
  Q 1020.55 656.81 1020.56 655.76
  L 1020.65 649.91
  Q 1020.66 649.02 1019.71 649.01
  Q 1006.05 648.87 1003.50 648.99
  C 995.11 649.39 990.09 656.98 992.87 665.04
  Q 994.59 670.04 1000.57 672.12
  C 1003.10 673.00 1007.60 672.42 1010.43 672.60
  Q 1013.68 672.80 1013.79 676.06
  Z
  M 1047.68 676.58
  Q 1047.72 676.87 1047.35 677.88
  Q 1046.41 680.44 1043.71 680.43
  L 1027.03 680.39
  Q 1026.14 680.39 1026.13 681.23
  L 1026.07 687.31
  A 0.92 0.87 0.6 0 0 1026.98 688.19
  Q 1035.66 688.24 1041.41 688.23
  Q 1046.42 688.23 1048.71 687.23
  C 1054.80 684.55 1057.22 676.57 1054.10 670.87
  C 1050.46 664.21 1045.04 664.83 1037.66 664.66
  Q 1034.02 664.57 1033.80 660.85
  Q 1033.79 660.74 1033.79 660.70
  Q 1033.71 656.97 1037.30 656.93
  L 1053.79 656.76
  Q 1054.29 656.75 1054.30 656.25
  L 1054.43 649.73
  Q 1054.44 649.16 1053.85 649.14
  Q 1043.98 648.79 1037.77 648.96
  Q 1030.96 649.13 1027.65 654.43
  C 1023.49 661.08 1026.48 669.48 1033.83 672.02
  C 1036.44 672.92 1040.95 672.60 1043.76 672.58
  Q 1047.07 672.56 1047.68 676.58
  Z
  M 1078.5311 688.2493
  A 19.61 19.38 89.5 0 0 1097.7393 668.4709
  A 19.61 19.38 89.5 0 0 1078.1889 649.0307
  A 19.61 19.38 89.5 0 0 1058.9807 668.8091
  A 19.61 19.38 89.5 0 0 1078.5311 688.2493
  Z
  M 1166.50 676.73
  Q 1166.39 680.39 1162.67 680.38
  L 1145.99 680.37
  Q 1145.03 680.37 1145.04 681.31
  L 1145.09 687.30
  Q 1145.10 688.20 1146.04 688.22
  Q 1148.86 688.30 1160.61 688.25
  Q 1165.64 688.24 1167.96 687.12
  Q 1171.54 685.38 1173.40 681.41
  C 1176.76 674.21 1172.13 665.85 1164.18 664.87
  Q 1162.79 664.70 1156.46 664.64
  Q 1152.73 664.61 1152.71 660.83
  Q 1152.71 660.72 1152.71 660.68
  Q 1152.77 656.92 1156.45 656.90
  L 1172.75 656.82
  Q 1173.30 656.82 1173.30 656.25
  L 1173.29 649.70
  A 0.65 0.62 0.5 0 0 1172.65 649.08
  Q 1169.24 649.04 1159.26 648.98
  Q 1153.86 648.96 1151.91 649.88
  C 1141.56 654.81 1142.65 669.10 1153.54 672.22
  C 1155.95 672.91 1159.67 672.45 1162.66 672.55
  Q 1166.37 672.67 1166.50 676.45
  Q 1166.51 676.49 1166.50 676.73
  Z
  M 1251.6154 688.2749
  A 19.63 19.33 88.7 0 0 1270.4950 668.2115
  A 19.63 19.33 88.7 0 0 1250.7246 649.0251
  A 19.63 19.33 88.7 0 0 1231.8450 669.0885
  A 19.63 19.33 88.7 0 0 1251.6154 688.2749
  Z
  M 1282.85 660.49
  Q 1283.14 656.89 1286.67 656.86
  L 1302.83 656.74
  Q 1303.39 656.74 1303.40 656.19
  L 1303.47 649.78
  A 0.68 0.66 -90.0 0 0 1302.81 649.10
  Q 1291.27 649.14 1287.54 649.01
  C 1278.02 648.68 1271.55 658.27 1276.52 666.83
  C 1280.22 673.23 1286.73 672.58 1293.37 672.68
  Q 1296.29 672.72 1296.76 676.51
  Q 1296.80 676.83 1296.75 677.09
  Q 1296.11 680.38 1293.07 680.38
  L 1276.43 680.39
  Q 1275.31 680.39 1275.27 681.52
  L 1275.09 687.01
  Q 1275.05 688.21 1276.27 688.23
  Q 1284.42 688.43 1292.75 688.25
  C 1301.17 688.07 1306.83 680.27 1303.88 672.33
  C 1301.82 666.79 1297.08 664.71 1291.41 664.79
  Q 1288.58 664.83 1286.13 664.51
  Q 1282.64 664.07 1282.84 660.64
  Q 1282.84 660.52 1282.85 660.49
  Z
  M 1332.63 656.78
  L 1348.51 656.84
  Q 1349.31 656.84 1349.33 656.02
  L 1349.48 649.99
  Q 1349.50 649.13 1348.63 649.11
  Q 1343.28 649.03 1337.54 649.04
  Q 1331.52 649.05 1330.03 649.34
  Q 1325.92 650.13 1323.31 653.62
  C 1318.14 660.54 1321.47 670.06 1329.80 672.30
  C 1332.14 672.93 1336.01 672.45 1338.96 672.57
  Q 1342.63 672.72 1342.64 676.40
  Q 1342.65 676.56 1342.65 676.70
  Q 1342.68 680.41 1338.94 680.37
  L 1322.45 680.19
  Q 1321.05 680.17 1321.05 681.57
  L 1321.03 686.82
  Q 1321.03 688.34 1322.58 688.33
  Q 1336.60 688.31 1337.02 688.32
  C 1342.04 688.42 1345.86 687.22 1348.51 683.26
  Q 1351.74 678.43 1349.92 672.60
  Q 1347.90 666.13 1340.33 664.93
  Q 1339.27 664.76 1332.60 664.55
  Q 1329.00 664.44 1328.88 660.76
  Q 1328.87 660.67 1328.87 660.61
  Q 1328.97 656.77 1332.63 656.78
  Z
  M 1364.0971 649.7731
  A 0.73 0.73 0.0 0 0 1363.3658 649.0444
  L 1356.9058 649.0557
  A 0.73 0.73 0.0 0 0 1356.1771 649.7869
  L 1356.2429 687.5269
  A 0.73 0.73 0.0 0 0 1356.9742 688.2556
  L 1363.4342 688.2443
  A 0.73 0.73 0.0 0 0 1364.1629 687.5131
  L 1364.0971 649.7731
  Z
  M 1376.65 660.81
  Q 1376.64 663.06 1375.26 663.96
  C 1373.41 665.17 1370.04 664.74 1366.57 664.69
  A 1.14 1.06 -89.2 0 0 1365.49 665.82
  L 1365.46 671.62
  Q 1365.46 672.40 1366.32 672.45
  Q 1373.29 672.92 1376.39 672.03
  C 1381.38 670.59 1384.58 666.17 1384.60 660.85
  C 1384.63 655.52 1381.47 651.07 1376.50 649.58
  Q 1373.41 648.66 1366.43 649.06
  Q 1365.57 649.11 1365.56 649.89
  L 1365.54 655.69
  A 1.14 1.06 89.8 0 0 1366.61 656.83
  C 1370.08 656.81 1373.45 656.41 1375.29 657.64
  Q 1376.66 658.55 1376.65 660.81
  Z
  M 1409.0232 688.2755
  A 19.62 19.38 87.8 0 0 1427.6357 667.9260
  A 19.62 19.38 87.8 0 0 1407.5168 649.0645
  A 19.62 19.38 87.8 0 0 1388.9043 669.4140
  A 19.62 19.38 87.8 0 0 1409.0232 688.2755
  Z
  M 942.36 666.94
  A 0.57 0.44 25.4 0 1 943.27 666.74
  L 957.70 679.56
  Q 959.43 681.10 959.40 678.58
  L 959.33 673.91
  A 6.24 6.22 -69.6 0 0 957.25 669.35
  L 935.52 649.89
  A 0.67 0.67 0.0 0 0 934.57 649.94
  Q 934.13 650.43 934.14 651.26
  Q 934.46 667.93 934.35 687.36
  A 0.86 0.86 0.0 0 0 935.22 688.22
  L 941.34 688.17
  A 1.00 0.99 89.7 0 0 942.32 687.17
  L 942.36 666.94
  Z
  M 1112.18 666.29
  L 1127.73 680.13
  A 0.68 0.67 21.0 0 0 1128.86 679.64
  L 1128.77 672.92
  A 3.86 3.77 20.9 0 0 1127.49 670.15
  L 1104.59 649.66
  A 0.32 0.32 0.0 0 0 1104.06 649.84
  Q 1103.70 651.72 1103.72 653.76
  Q 1103.88 667.80 1103.80 687.52
  Q 1103.80 688.30 1104.58 688.29
  L 1111.00 688.21
  Q 1111.83 688.20 1111.82 687.38
  L 1111.68 666.51
  A 0.30 0.30 0.0 0 1 1112.18 666.29
  Z
  M 1200.36 666.67
  A 0.37 0.36 21.8 0 1 1200.98 666.42
  L 1216.39 680.16
  Q 1217.37 681.03 1217.38 679.71
  L 1217.43 672.85
  A 3.66 3.64 21.1 0 0 1216.20 670.10
  L 1193.38 649.82
  A 0.44 0.43 -65.9 0 0 1192.66 650.10
  Q 1192.56 650.91 1192.51 652.25
  Q 1192.39 655.73 1192.45 687.50
  Q 1192.45 688.31 1193.27 688.30
  L 1199.61 688.17
  A 0.89 0.87 -1.0 0 0 1200.48 687.29
  L 1200.36 666.67
  Z
  M 960.65 682.16
  A 0.34 0.34 0.0 0 0 960.76 682.41
  L 967.94 688.91
  A 0.34 0.34 0.0 0 0 968.51 688.66
  L 968.57 650.42
  A 0.34 0.34 0.0 0 0 968.23 650.08
  L 960.80 650.15
  A 0.34 0.34 0.0 0 0 960.46 650.49
  L 960.65 682.16
  Z
  M 1218.79 682.20
  A 0.53 0.53 0.0 0 0 1218.97 682.60
  L 1225.78 688.65
  A 0.53 0.53 0.0 0 0 1226.66 688.25
  L 1226.62 650.73
  A 0.53 0.53 0.0 0 0 1226.10 650.20
  L 1219.20 650.13
  A 0.53 0.53 0.0 0 0 1218.66 650.66
  L 1218.79 682.20
  Z
  M 1130.13 682.12
  A 0.54 0.54 0.0 0 0 1130.31 682.52
  L 1137.16 688.64
  A 0.54 0.54 0.0 0 0 1138.06 688.24
  L 1137.99 650.75
  A 0.54 0.54 0.0 0 0 1137.45 650.21
  L 1130.49 650.16
  A 0.54 0.54 0.0 0 0 1129.94 650.71
  L 1130.13 682.12
  Z
  M 1482.33 659.64
  A 1.10 1.10 0.0 0 0 1481.23 658.54
  L 1475.27 658.54
  A 1.10 1.10 0.0 0 0 1474.17 659.64
  L 1474.17 687.18
  A 1.10 1.10 0.0 0 0 1475.27 688.28
  L 1481.23 688.28
  A 1.10 1.10 0.0 0 0 1482.33 687.18
  L 1482.33 659.64
  Z
  M 1452.89 687.85
  A 0.68 0.68 0.0 0 0 1453.41 688.09
  L 1461.80 688.19
  A 0.68 0.68 0.0 0 0 1462.32 687.07
  L 1450.95 673.98
  A 0.68 0.68 0.0 0 0 1450.44 673.75
  L 1442.65 673.66
  A 0.68 0.68 0.0 0 0 1442.12 674.77
  L 1452.89 687.85
  Z
  M 1535.0730 681.7813
  A 1.46 1.46 0.0 0 0 1533.6206 680.3137
  L 1528.4007 680.2864
  A 1.46 1.46 0.0 0 0 1526.9331 681.7387
  L 1526.9070 686.7187
  A 1.46 1.46 0.0 0 0 1528.3594 688.1863
  L 1533.5793 688.2136
  A 1.46 1.46 0.0 0 0 1535.0469 686.7613
  L 1535.0730 681.7813
  Z"
    />
    <path fill="#e9b3d0" d="
  M 1252.98 476.05
  L 1266.03 505.37
  L 1222.45 505.59
  A 0.71 0.71 0.0 0 0 1221.75 506.30
  L 1221.73 523.68
  A 1.03 1.03 0.0 0 0 1222.75 524.71
  L 1253.31 524.82
  C 1244.57 533.79 1237.89 542.90 1233.69 554.64
  L 1222.51 554.64
  Q 1221.98 554.64 1221.80 555.14
  Q 1221.70 555.42 1221.72 555.82
  L 1177.87 545.97
  L 1177.54 477.02
  A 1.14 1.13 90.0 0 1 1178.68 475.87
  L 1252.98 476.05
  Z"
    />
    <path fill="#d1cdd7" d="
  M 1266.03 505.37
  L 1252.98 476.05
  L 1326.23 475.88
  A 1.37 1.36 90.0 0 1 1327.59 477.25
  L 1327.65 504.34
  A 0.99 0.97 90.0 0 1 1326.68 505.33
  L 1266.03 505.37
  Z"
    />
    <path fill="#a6f1ff" d="
  M 1518.45 476.26
  Q 1524.91 484.16 1533.00 487.78
  Q 1534.57 488.49 1536.87 487.95
  L 1536.73 605.80
  A 0.50 0.50 0.0 0 1 1536.23 606.30
  Q 1520.24 606.43 1496.53 606.40
  Q 1492.47 606.40 1489.73 603.81
  Q 1482.41 596.89 1426.16 546.59
  Q 1412.16 534.07 1398.35 521.74
  A 1.26 0.73 34.2 0 0 1396.61 521.62
  Q 1396.38 522.66 1396.66 524.54
  C 1383.72 505.76 1373.76 491.32 1361.50 476.21
  Q 1380.42 476.43 1399.25 476.25
  Q 1400.87 476.23 1402.54 476.97
  Q 1403.70 477.48 1405.30 478.88
  Q 1413.25 485.81 1421.39 493.34
  Q 1428.62 500.05 1436.13 506.80
  Q 1475.59 542.30 1491.98 557.20
  A 0.64 0.63 20.9 0 0 1493.04 556.73
  L 1492.95 476.73
  A 0.23 0.23 0.0 0 1 1493.18 476.50
  L 1518.45 476.26
  Z"
    />
    <path fill="#9821ff" d="
  M 502.44 555.10
  Q 499.17 539.11 493.41 523.74
  L 509.28 523.79
  A 0.79 0.79 0.0 0 0 510.07 523.00
  L 510.06 477.02
  A 0.56 0.55 90.0 0 1 510.61 476.46
  L 553.80 476.45
  A 0.59 0.58 90.0 0 1 554.38 477.04
  L 554.39 605.33
  A 0.90 0.90 0.0 0 1 553.49 606.23
  L 510.50 606.27
  A 0.41 0.41 0.0 0 1 510.09 605.87
  L 510.04 555.77
  A 0.69 0.69 0.0 0 0 509.35 555.08
  L 502.44 555.10
  Z"
    />
    <path fill="#ff12d4" d="
  M 635.19 489.90
  Q 639.83 514.76 637.37 539.60
  Q 636.95 543.80 636.49 548.10
  L 568.92 477.11
  A 0.44 0.44 0.0 0 1 569.24 476.36
  L 621.27 476.32
  A 3.17 3.12 -21.1 0 1 623.62 477.34
  L 635.19 489.90
  Z"
    />
    <path fill="#ff4c74" d="
  M 698.77 542.35
  Q 695.38 521.71 683.66 504.91
  L 709.40 477.29
  A 3.04 3.02 -68.3 0 1 711.61 476.33
  L 758.47 476.40
  A 0.60 0.60 0.0 0 1 758.91 477.41
  L 698.77 542.35
  Z"
    />
    <path fill="#ff8557" d="
  M 858.94 476.44
  L 858.25 505.97
  L 820.26 505.99
  A 0.99 0.99 0.0 0 0 819.27 506.98
  L 819.20 522.87
  Q 810.70 531.05 802.56 534.85
  C 793.47 539.10 784.84 538.37 775.62 534.89
  Q 775.15 534.71 775.09 534.22
  L 774.85 532.28
  L 774.84 476.95
  A 0.58 0.58 0.0 0 1 775.42 476.37
  L 858.94 476.44
  Z"
    />
    <path fill="#ff9777" d="
  M 870.14 562.94
  Q 872.78 548.11 877.95 533.89
  C 886.49 533.92 899.56 533.29 900.86 522.03
  Q 901.64 515.25 897.78 511.07
  C 894.30 507.31 887.36 505.99 882.25 505.96
  Q 870.30 505.90 858.25 505.97
  L 858.94 476.44
  Q 883.03 475.73 898.74 477.23
  Q 912.69 478.56 923.47 483.08
  Q 932.25 486.76 938.17 492.94
  C 946.49 501.62 948.15 513.90 947.11 525.31
  C 945.13 547.10 927.26 557.80 907.46 560.90
  Q 888.86 563.81 870.14 562.94
  Z"
    />
    <path fill="#e9b3d0" d="
  M 1068.52 555.07
  Q 1065.90 539.15 1061.71 523.80
  L 1104.90 523.75
  Q 1105.99 523.75 1105.99 522.66
  L 1105.89 477.50
  A 1.12 1.10 -89.7 0 1 1107.00 476.38
  L 1149.75 476.49
  A 0.50 0.50 0.0 0 1 1150.25 476.99
  L 1150.21 605.51
  A 0.58 0.58 0.0 0 1 1149.67 606.09
  Q 1146.22 606.34 1143.28 606.31
  Q 1123.62 606.14 1106.82 606.17
  Q 1106.34 606.17 1106.27 605.68
  Q 1105.87 602.79 1105.91 599.29
  Q 1106.13 578.57 1105.90 560.52
  Q 1105.87 558.29 1105.68 556.00
  Q 1105.62 555.23 1104.84 555.23
  L 1068.52 555.07
  Z"
    />
    <path fill="#b6dfeb" d="
  M 1361.50 476.21
  C 1373.76 491.32 1383.72 505.76 1396.66 524.54
  L 1396.76 605.20
  A 1.18 1.18 0.0 0 1 1395.59 606.38
  L 1354.07 606.44
  A 1.11 1.10 -0.5 0 1 1352.96 605.36
  Q 1352.43 571.33 1352.87 534.26
  Q 1352.95 527.56 1352.86 514.27
  Q 1352.73 494.91 1352.81 477.26
  A 0.94 0.94 0.0 0 1 1353.74 476.33
  L 1361.50 476.21
  Z"
    />
    <path fill="#9ecce1" d="
  M 1536.87 487.95
  Q 1534.57 488.49 1533.00 487.78
  Q 1524.91 484.16 1518.45 476.26
  L 1536.47 476.46
  A 0.41 0.41 0.0 0 1 1536.88 476.88
  L 1536.87 487.95
  Z"
    />
    <path fill="#323cff" d="
  M 493.41 523.74
  Q 499.17 539.11 502.44 555.10
  L 415.44 555.12
  A 0.41 0.41 0.0 0 0 415.03 555.53
  L 415.07 605.23
  Q 415.07 606.28 414.01 606.28
  L 371.18 606.23
  A 0.33 0.33 0.0 0 1 370.85 605.90
  L 370.78 476.96
  Q 370.78 476.44 371.30 476.44
  L 414.72 476.49
  A 0.25 0.24 -90.0 0 1 414.96 476.74
  L 415.04 522.92
  A 0.87 0.86 90.0 0 0 415.90 523.79
  L 493.41 523.74
  Z"
    />
    <path fill="#fc9093" d="
  M 1061.71 523.80
  Q 1065.90 539.15 1068.52 555.07
  L 1011.64 555.03
  A 0.73 0.71 0.0 0 0 1010.91 555.74
  L 1010.89 605.16
  A 1.08 1.04 90.0 0 1 1009.85 606.24
  L 967.77 606.23
  A 1.20 1.19 -90.0 0 1 966.58 605.03
  L 966.58 477.31
  Q 966.58 476.82 967.06 476.70
  Q 968.12 476.42 969.77 476.43
  Q 991.70 476.57 1010.08 476.45
  A 0.79 0.78 -0.0 0 1 1010.87 477.23
  L 1010.89 522.75
  A 1.04 1.04 0.0 0 0 1011.93 523.79
  L 1061.71 523.80
  Z"
    />
    <path fill="#ff3d90" d="
  M 683.66 504.91
  Q 695.38 521.71 698.77 542.35
  Q 693.87 547.87 688.44 553.44
  Q 687.06 554.87 687.05 556.50
  Q 686.95 583.54 687.11 603.87
  A 0.90 0.90 0.0 0 1 686.21 604.78
  L 643.75 604.82
  A 0.64 0.63 0.0 0 1 643.11 604.19
  Q 643.15 571.69 643.18 556.50
  Q 643.18 554.90 641.75 553.49
  Q 639.05 550.85 636.49 548.10
  Q 636.95 543.80 637.37 539.60
  Q 639.83 514.76 635.19 489.90
  L 665.50 522.95
  A 0.87 0.87 0.0 0 0 666.77 522.96
  L 683.66 504.91
  Z"
    />
    <path fill="#ffffff" d="
  M 858.25 505.97
  Q 870.30 505.90 882.25 505.96
  C 887.36 505.99 894.30 507.31 897.78 511.07
  Q 901.64 515.25 900.86 522.03
  C 899.56 533.29 886.49 533.92 877.95 533.89
  L 820.41 533.94
  A 1.15 1.15 0.0 0 1 819.26 532.79
  L 819.20 522.87
  L 819.27 506.98
  A 0.99 0.99 0.0 0 1 820.26 505.99
  L 858.25 505.97
  Z"
    />
    <path fill="#ff7575" d="
  M 819.20 522.87
  L 819.26 532.79
  A 1.15 1.15 0.0 0 0 820.41 533.94
  L 877.95 533.89
  Q 872.78 548.11 870.14 562.94
  L 820.42 563.05
  A 1.10 1.09 0.0 0 0 819.32 564.14
  L 819.23 605.54
  A 0.79 0.79 0.0 0 1 818.45 606.32
  L 775.77 606.43
  A 0.90 0.89 89.7 0 1 774.87 605.53
  L 774.85 532.28
  L 775.09 534.22
  Q 775.15 534.71 775.62 534.89
  C 784.84 538.37 793.47 539.10 802.56 534.85
  Q 810.70 531.05 819.20 522.87
  Z"
    />
    <path fill="#d1cdd7" d="
  M 1233.69 554.64
  C 1237.89 542.90 1244.57 533.79 1253.31 524.82
  L 1323.91 524.88
  A 1.07 1.06 89.7 0 1 1324.97 525.94
  L 1325.13 553.42
  A 1.18 1.18 0.0 0 1 1323.95 554.60
  L 1233.69 554.64
  Z"
    />
    <path fill="#c7bad1" d="
  M 1221.72 555.82
  L 1221.78 575.16
  A 0.68 0.68 0.0 0 0 1222.44 575.84
  Q 1226.95 576.01 1227.77 576.01
  Q 1276.56 576.13 1328.56 575.98
  A 0.91 0.91 0.0 0 1 1329.47 576.89
  Q 1329.39 590.84 1329.51 602.75
  Q 1329.52 604.45 1329.31 605.69
  Q 1329.21 606.27 1328.62 606.27
  L 1178.81 606.19
  Q 1177.84 606.19 1177.84 605.23
  L 1177.87 545.97
  L 1221.72 555.82
  Z"
    />
    <rect fill="#fc9093" x="-4.00" y="-19.64" transform="translate(981.99,668.56) rotate(-0.1)" width="8.00" height="39.28" rx="0.55"/>
    <path fill="#a6f1ff" d="
  M 1440.26 673.58
  L 1440.74 686.56
  Q 1440.79 688.11 1439.22 688.15
  L 1433.75 688.28
  Q 1432.18 688.32 1432.24 686.75
  Q 1432.88 668.38 1432.30 649.39
  A 0.54 0.54 0.0 0 1 1432.86 648.84
  Q 1439.25 649.07 1446.24 648.89
  C 1449.37 648.81 1454.51 649.36 1456.88 651.68
  Q 1460.15 654.88 1460.65 657.93
  C 1462.18 667.29 1456.36 672.82 1447.34 672.48
  Q 1444.20 672.36 1441.38 672.39
  A 1.15 1.14 88.5 0 0 1440.26 673.58
  Z
  M 1440.36 657.73
  L 1440.28 663.61
  A 1.05 1.05 0.0 0 0 1441.31 664.68
  L 1449.12 664.78
  A 3.86 3.73 0.8 0 0 1453.04 661.11
  L 1453.04 660.59
  A 3.86 3.73 0.8 0 0 1449.24 656.81
  L 1441.43 656.70
  A 1.05 1.05 0.0 0 0 1440.36 657.73
  Z"
    />
    <rect fill="#a6f1ff" x="-14.52" y="-3.97" transform="translate(1478.41,652.85) rotate(0.1)" width="29.04" height="7.94" rx="1.10"/>
    <path fill="#a6f1ff" d="
  M 1514.64 672.63
  Q 1513.06 672.46 1507.29 672.33
  C 1497.95 672.13 1493.39 663.01 1497.50 655.00
  Q 1498.82 652.43 1502.23 650.33
  Q 1504.49 648.94 1508.40 648.90
  Q 1516.77 648.80 1522.85 649.02
  Q 1524.48 649.08 1524.50 650.72
  L 1524.54 655.12
  Q 1524.56 656.79 1522.86 656.80
  L 1507.99 656.94
  Q 1503.97 656.97 1503.93 660.58
  Q 1503.93 660.69 1503.92 660.73
  Q 1503.78 664.48 1507.47 664.51
  Q 1518.00 664.62 1520.43 666.38
  C 1526.22 670.58 1527.26 678.51 1522.91 684.04
  Q 1519.72 688.11 1513.51 688.24
  Q 1509.39 688.33 1497.30 688.22
  Q 1496.07 688.20 1496.09 686.94
  L 1496.22 681.55
  Q 1496.24 680.40 1497.43 680.39
  L 1514.48 680.33
  Q 1517.56 680.32 1517.78 677.16
  Q 1517.79 677.07 1517.78 676.09
  Q 1517.74 672.97 1514.64 672.63
  Z"
    />
    <path fill="#fc9093" d="
  M 909.47 680.45
  Q 912.34 680.45 914.23 678.96
  C 918.06 675.94 917.67 672.54 917.74 668.06
  Q 917.89 658.42 917.70 650.09
  Q 917.68 648.99 918.81 648.97
  L 924.78 648.88
  Q 925.92 648.86 925.92 650.02
  Q 925.91 656.81 925.78 671.25
  C 925.70 680.70 918.99 688.22 909.48 688.23
  C 899.96 688.23 893.25 680.71 893.16 671.26
  Q 893.02 656.82 893.00 650.03
  Q 893.00 648.87 894.14 648.89
  L 900.11 648.98
  Q 901.24 649.00 901.22 650.10
  Q 901.04 658.43 901.20 668.07
  C 901.27 672.55 900.88 675.95 904.72 678.96
  Q 906.61 680.45 909.47 680.45
  Z"
    />
    <path fill="#fc9093" d="
  M 1010.43 672.60
  C 1007.60 672.42 1003.10 673.00 1000.57 672.12
  Q 994.59 670.04 992.87 665.04
  C 990.09 656.98 995.11 649.39 1003.50 648.99
  Q 1006.05 648.87 1019.71 649.01
  Q 1020.66 649.02 1020.65 649.91
  L 1020.56 655.76
  Q 1020.55 656.81 1019.51 656.81
  L 1003.77 656.91
  Q 1000.10 656.94 1000.15 660.66
  Q 1000.15 660.69 1000.16 660.95
  Q 1000.30 664.64 1004.00 664.67
  Q 1009.64 664.71 1010.74 664.80
  Q 1017.80 665.37 1020.72 671.54
  C 1023.39 677.18 1020.78 684.86 1014.74 687.28
  Q 1012.64 688.12 1007.74 688.19
  Q 1000.78 688.29 993.11 688.24
  A 0.77 0.76 0.4 0 1 992.35 687.48
  L 992.39 681.10
  A 0.74 0.74 0.0 0 1 993.14 680.37
  L 1010.22 680.44
  Q 1013.28 680.45 1013.83 677.26
  Q 1013.83 677.23 1013.79 676.06
  Q 1013.68 672.80 1010.43 672.60
  Z"
    />
    <path fill="#e9b3d0" d="
  M 1047.68 676.58
  Q 1047.07 672.56 1043.76 672.58
  C 1040.95 672.60 1036.44 672.92 1033.83 672.02
  C 1026.48 669.48 1023.49 661.08 1027.65 654.43
  Q 1030.96 649.13 1037.77 648.96
  Q 1043.98 648.79 1053.85 649.14
  Q 1054.44 649.16 1054.43 649.73
  L 1054.30 656.25
  Q 1054.29 656.75 1053.79 656.76
  L 1037.30 656.93
  Q 1033.71 656.97 1033.79 660.70
  Q 1033.79 660.74 1033.80 660.85
  Q 1034.02 664.57 1037.66 664.66
  C 1045.04 664.83 1050.46 664.21 1054.10 670.87
  C 1057.22 676.57 1054.80 684.55 1048.71 687.23
  Q 1046.42 688.23 1041.41 688.23
  Q 1035.66 688.24 1026.98 688.19
  A 0.92 0.87 0.6 0 1 1026.07 687.31
  L 1026.13 681.23
  Q 1026.14 680.39 1027.03 680.39
  L 1043.71 680.43
  Q 1046.41 680.44 1047.35 677.88
  Q 1047.72 676.87 1047.68 676.58
  Z"
    />
    <path fill="#c7bad1" d="
  M 1078.5311 688.2493
  A 19.61 19.38 89.5 0 1 1058.9807 668.8091
  A 19.61 19.38 89.5 0 1 1078.1889 649.0307
  A 19.61 19.38 89.5 0 1 1097.7393 668.4709
  A 19.61 19.38 89.5 0 1 1078.5311 688.2493
  Z
  M 1078.3907 680.4800
  A 11.84 11.30 89.9 0 0 1089.6700 668.6203
  A 11.84 11.30 89.9 0 0 1078.3493 656.8000
  A 11.84 11.30 89.9 0 0 1067.0700 668.6597
  A 11.84 11.30 89.9 0 0 1078.3907 680.4800
  Z"
    />
    <path fill="#9ecce1" d="
  M 1166.50 676.73
  Q 1166.51 676.49 1166.50 676.45
  Q 1166.37 672.67 1162.66 672.55
  C 1159.67 672.45 1155.95 672.91 1153.54 672.22
  C 1142.65 669.10 1141.56 654.81 1151.91 649.88
  Q 1153.86 648.96 1159.26 648.98
  Q 1169.24 649.04 1172.65 649.08
  A 0.65 0.62 0.5 0 1 1173.29 649.70
  L 1173.30 656.25
  Q 1173.30 656.82 1172.75 656.82
  L 1156.45 656.90
  Q 1152.77 656.92 1152.71 660.68
  Q 1152.71 660.72 1152.71 660.83
  Q 1152.73 664.61 1156.46 664.64
  Q 1162.79 664.70 1164.18 664.87
  C 1172.13 665.85 1176.76 674.21 1173.40 681.41
  Q 1171.54 685.38 1167.96 687.12
  Q 1165.64 688.24 1160.61 688.25
  Q 1148.86 688.30 1146.04 688.22
  Q 1145.10 688.20 1145.09 687.30
  L 1145.04 681.31
  Q 1145.03 680.37 1145.99 680.37
  L 1162.67 680.38
  Q 1166.39 680.39 1166.50 676.73
  Z"
    />
    <path fill="#9ecce1" d="
  M 1251.6154 688.2749
  A 19.63 19.33 88.7 0 1 1231.8450 669.0885
  A 19.63 19.33 88.7 0 1 1250.7246 649.0251
  A 19.63 19.33 88.7 0 1 1270.4950 668.2115
  A 19.63 19.33 88.7 0 1 1251.6154 688.2749
  Z
  M 1251.2727 680.4597
  A 11.85 11.33 89.6 0 0 1262.5197 668.5309
  A 11.85 11.33 89.6 0 0 1251.1073 656.7603
  A 11.85 11.33 89.6 0 0 1239.8603 668.6891
  A 11.85 11.33 89.6 0 0 1251.2727 680.4597
  Z"
    />
    <path fill="#9ecce1" d="
  M 1282.85 660.49
  Q 1282.84 660.52 1282.84 660.64
  Q 1282.64 664.07 1286.13 664.51
  Q 1288.58 664.83 1291.41 664.79
  C 1297.08 664.71 1301.82 666.79 1303.88 672.33
  C 1306.83 680.27 1301.17 688.07 1292.75 688.25
  Q 1284.42 688.43 1276.27 688.23
  Q 1275.05 688.21 1275.09 687.01
  L 1275.27 681.52
  Q 1275.31 680.39 1276.43 680.39
  L 1293.07 680.38
  Q 1296.11 680.38 1296.75 677.09
  Q 1296.80 676.83 1296.76 676.51
  Q 1296.29 672.72 1293.37 672.68
  C 1286.73 672.58 1280.22 673.23 1276.52 666.83
  C 1271.55 658.27 1278.02 648.68 1287.54 649.01
  Q 1291.27 649.14 1302.81 649.10
  A 0.68 0.66 90.0 0 1 1303.47 649.78
  L 1303.40 656.19
  Q 1303.39 656.74 1302.83 656.74
  L 1286.67 656.86
  Q 1283.14 656.89 1282.85 660.49
  Z"
    />
    <path fill="#b6dfeb" d="
  M 1332.63 656.78
  Q 1328.97 656.77 1328.87 660.61
  Q 1328.87 660.67 1328.88 660.76
  Q 1329.00 664.44 1332.60 664.55
  Q 1339.27 664.76 1340.33 664.93
  Q 1347.90 666.13 1349.92 672.60
  Q 1351.74 678.43 1348.51 683.26
  C 1345.86 687.22 1342.04 688.42 1337.02 688.32
  Q 1336.60 688.31 1322.58 688.33
  Q 1321.03 688.34 1321.03 686.82
  L 1321.05 681.57
  Q 1321.05 680.17 1322.45 680.19
  L 1338.94 680.37
  Q 1342.68 680.41 1342.65 676.70
  Q 1342.65 676.56 1342.64 676.40
  Q 1342.63 672.72 1338.96 672.57
  C 1336.01 672.45 1332.14 672.93 1329.80 672.30
  C 1321.47 670.06 1318.14 660.54 1323.31 653.62
  Q 1325.92 650.13 1330.03 649.34
  Q 1331.52 649.05 1337.54 649.04
  Q 1343.28 649.03 1348.63 649.11
  Q 1349.50 649.13 1349.48 649.99
  L 1349.33 656.02
  Q 1349.31 656.84 1348.51 656.84
  L 1332.63 656.78
  Z"
    />
    <rect fill="#b6dfeb" x="-3.96" y="-19.60" transform="translate(1360.17,668.65) rotate(-0.1)" width="7.92" height="39.20" rx="0.73"/>
    <path fill="#b6dfeb" d="
  M 1384.60 660.85
  C 1384.58 666.17 1381.38 670.59 1376.39 672.03
  Q 1373.29 672.92 1366.32 672.45
  Q 1365.46 672.40 1365.46 671.62
  L 1365.49 665.82
  A 1.14 1.06 -89.2 0 1 1366.57 664.69
  C 1370.04 664.74 1373.41 665.17 1375.26 663.96
  Q 1376.64 663.06 1376.65 660.81
  Q 1376.66 658.55 1375.29 657.64
  C 1373.45 656.41 1370.08 656.81 1366.61 656.83
  A 1.14 1.06 89.8 0 1 1365.54 655.69
  L 1365.56 649.89
  Q 1365.57 649.11 1366.43 649.06
  Q 1373.41 648.66 1376.50 649.58
  C 1381.47 651.07 1384.63 655.52 1384.60 660.85
  Z"
    />
    <path fill="#a6f1ff" d="
  M 1409.0232 688.2755
  A 19.62 19.38 87.8 0 1 1388.9043 669.4140
  A 19.62 19.38 87.8 0 1 1407.5168 649.0645
  A 19.62 19.38 87.8 0 1 1427.6357 667.9260
  A 19.62 19.38 87.8 0 1 1409.0232 688.2755
  Z
  M 1408.6586 680.4160
  A 11.79 11.35 88.5 0 0 1419.6961 668.3329
  A 11.79 11.35 88.5 0 0 1408.0414 656.8440
  A 11.79 11.35 88.5 0 0 1397.0039 668.9271
  A 11.79 11.35 88.5 0 0 1408.6586 680.4160
  Z"
    />
    <path fill="#fc9093" d="
  M 942.36 666.94
  L 942.32 687.17
  A 1.00 0.99 89.7 0 1 941.34 688.17
  L 935.22 688.22
  A 0.86 0.86 0.0 0 1 934.35 687.36
  Q 934.46 667.93 934.14 651.26
  Q 934.13 650.43 934.57 649.94
  A 0.67 0.67 0.0 0 1 935.52 649.89
  L 957.25 669.35
  A 6.24 6.22 -69.6 0 1 959.33 673.91
  L 959.40 678.58
  Q 959.43 681.10 957.70 679.56
  L 943.27 666.74
  A 0.57 0.44 25.4 0 0 942.36 666.94
  Z"
    />
    <path fill="#c7bad1" d="
  M 1112.18 666.29
  A 0.30 0.30 0.0 0 0 1111.68 666.51
  L 1111.82 687.38
  Q 1111.83 688.20 1111.00 688.21
  L 1104.58 688.29
  Q 1103.80 688.30 1103.80 687.52
  Q 1103.88 667.80 1103.72 653.76
  Q 1103.70 651.72 1104.06 649.84
  A 0.32 0.32 0.0 0 1 1104.59 649.66
  L 1127.49 670.15
  A 3.86 3.77 20.9 0 1 1128.77 672.92
  L 1128.86 679.64
  A 0.68 0.67 21.0 0 1 1127.73 680.13
  L 1112.18 666.29
  Z"
    />
    <path fill="#9ecce1" d="
  M 1200.36 666.67
  L 1200.48 687.29
  A 0.89 0.87 -1.0 0 1 1199.61 688.17
  L 1193.27 688.30
  Q 1192.45 688.31 1192.45 687.50
  Q 1192.39 655.73 1192.51 652.25
  Q 1192.56 650.91 1192.66 650.10
  A 0.44 0.43 -65.9 0 1 1193.38 649.82
  L 1216.20 670.10
  A 3.66 3.64 21.1 0 1 1217.43 672.85
  L 1217.38 679.71
  Q 1217.37 681.03 1216.39 680.16
  L 1200.98 666.42
  A 0.37 0.36 21.8 0 0 1200.36 666.67
  Z"
    />
    <path fill="#fc9093" d="
  M 960.65 682.16
  L 960.46 650.49
  A 0.34 0.34 0.0 0 1 960.80 650.15
  L 968.23 650.08
  A 0.34 0.34 0.0 0 1 968.57 650.42
  L 968.51 688.66
  A 0.34 0.34 0.0 0 1 967.94 688.91
  L 960.76 682.41
  A 0.34 0.34 0.0 0 1 960.65 682.16
  Z"
    />
    <path fill="#9ecce1" d="
  M 1218.79 682.20
  L 1218.66 650.66
  A 0.53 0.53 0.0 0 1 1219.20 650.13
  L 1226.10 650.20
  A 0.53 0.53 0.0 0 1 1226.62 650.73
  L 1226.66 688.25
  A 0.53 0.53 0.0 0 1 1225.78 688.65
  L 1218.97 682.60
  A 0.53 0.53 0.0 0 1 1218.79 682.20
  Z"
    />
    <path fill="#9ecce1" d="
  M 1130.13 682.12
  L 1129.94 650.71
  A 0.54 0.54 0.0 0 1 1130.49 650.16
  L 1137.45 650.21
  A 0.54 0.54 0.0 0 1 1137.99 650.75
  L 1138.06 688.24
  A 0.54 0.54 0.0 0 1 1137.16 688.64
  L 1130.31 682.52
  A 0.54 0.54 0.0 0 1 1130.13 682.12
  Z"
    />
    <ellipse fill="#ffffff" cx="0.00" cy="0.00" transform="translate(1078.37,668.64) rotate(89.9)" rx="11.84" ry="11.30"/>
    <ellipse fill="#ffffff" cx="0.00" cy="0.00" transform="translate(1251.19,668.61) rotate(89.6)" rx="11.85" ry="11.33"/>
    <ellipse fill="#ffffff" cx="0.00" cy="0.00" transform="translate(1408.35,668.63) rotate(88.5)" rx="11.79" ry="11.35"/>
    <path fill="#ffffff" d="
  M 1440.36 657.73
  A 1.05 1.05 0.0 0 1 1441.43 656.70
  L 1449.24 656.81
  A 3.86 3.73 0.8 0 1 1453.04 660.59
  L 1453.04 661.11
  A 3.86 3.73 0.8 0 1 1449.12 664.78
  L 1441.31 664.68
  A 1.05 1.05 0.0 0 1 1440.28 663.61
  L 1440.36 657.73
  Z"
    />
    <rect fill="#a6f1ff" x="1474.17" y="658.54" width="8.16" height="29.74" rx="1.10"/>
    <path fill="#a6f1ff" d="
  M 1452.89 687.85
  L 1442.12 674.77
  A 0.68 0.68 0.0 0 1 1442.65 673.66
  L 1450.44 673.75
  A 0.68 0.68 0.0 0 1 1450.95 673.98
  L 1462.32 687.07
  A 0.68 0.68 0.0 0 1 1461.80 688.19
  L 1453.41 688.09
  A 0.68 0.68 0.0 0 1 1452.89 687.85
  Z"
    />
    <rect fill="#a6f1ff" x="-4.07" y="-3.95" transform="translate(1530.99,684.25) rotate(0.3)" width="8.14" height="7.90" rx="1.46"/>
</svg>
